<mxfile host="app.diagrams.net" agent="Mozilla/5.0 (Windows NT 10.0; Win64; x64) AppleWebKit/537.36 (KHTML, like Gecko) Chrome/136.0.0.0 Safari/537.36" version="27.0.3">
  <diagram name="Page-1" id="FkFSyfI_OBTTS7HFIyCs">
    <mxGraphModel dx="812" dy="770" grid="1" gridSize="10" guides="1" tooltips="1" connect="1" arrows="1" fold="1" page="1" pageScale="1" pageWidth="850" pageHeight="1100" math="0" shadow="0">
      <root>
        <mxCell id="0" />
        <mxCell id="1" parent="0" />
        <mxCell id="JOD0CruA2qzfyjOclvug-2" value="&amp;lt;&amp;lt;device&amp;gt;&amp;gt;&lt;div&gt;HealMonitorSystemHTML&lt;/div&gt;&lt;div&gt;Client&lt;/div&gt;" style="shape=cube;whiteSpace=wrap;html=1;boundedLbl=1;backgroundOutline=1;darkOpacity=0.05;darkOpacity2=0.1;direction=south;" vertex="1" parent="1">
          <mxGeometry x="260" y="260" width="195" height="110" as="geometry" />
        </mxCell>
        <mxCell id="JOD0CruA2qzfyjOclvug-3" value="&amp;lt;&amp;lt;device&amp;gt;&amp;gt;&lt;div&gt;HealMonitorSystem&lt;/div&gt;&lt;div&gt;Server&lt;/div&gt;" style="shape=cube;whiteSpace=wrap;html=1;boundedLbl=1;backgroundOutline=1;darkOpacity=0.05;darkOpacity2=0.1;direction=south;" vertex="1" parent="1">
          <mxGeometry x="240" y="420" width="195" height="110" as="geometry" />
        </mxCell>
        <mxCell id="JOD0CruA2qzfyjOclvug-4" value="&amp;lt;&amp;lt;device&amp;gt;&amp;gt;&lt;div&gt;DB&lt;/div&gt;&lt;div&gt;Server&lt;/div&gt;" style="shape=cube;whiteSpace=wrap;html=1;boundedLbl=1;backgroundOutline=1;darkOpacity=0.05;darkOpacity2=0.1;direction=south;" vertex="1" parent="1">
          <mxGeometry x="230" y="580" width="195" height="110" as="geometry" />
        </mxCell>
        <mxCell id="JOD0CruA2qzfyjOclvug-5" value="&amp;lt;&amp;lt;device&amp;gt;&amp;gt;&lt;div&gt;HealMonitorSystemGUI&lt;/div&gt;&lt;div&gt;Client&lt;/div&gt;" style="shape=cube;whiteSpace=wrap;html=1;boundedLbl=1;backgroundOutline=1;darkOpacity=0.05;darkOpacity2=0.1;direction=south;" vertex="1" parent="1">
          <mxGeometry x="530" y="360" width="195" height="110" as="geometry" />
        </mxCell>
        <mxCell id="JOD0CruA2qzfyjOclvug-6" value="*" style="text;html=1;align=center;verticalAlign=middle;resizable=0;points=[];autosize=1;strokeColor=none;fillColor=none;fontStyle=1" vertex="1" parent="1">
          <mxGeometry x="455" y="240" width="30" height="30" as="geometry" />
        </mxCell>
        <mxCell id="JOD0CruA2qzfyjOclvug-9" value="" style="endArrow=none;html=1;rounded=0;entryX=0;entryY=0;entryDx=110;entryDy=107.5;entryPerimeter=0;exitX=0;exitY=0;exitDx=0;exitDy=87.5;exitPerimeter=0;" edge="1" parent="1" source="JOD0CruA2qzfyjOclvug-3" target="JOD0CruA2qzfyjOclvug-2">
          <mxGeometry width="50" height="50" relative="1" as="geometry">
            <mxPoint x="340" y="440" as="sourcePoint" />
            <mxPoint x="390" y="390" as="targetPoint" />
          </mxGeometry>
        </mxCell>
        <mxCell id="JOD0CruA2qzfyjOclvug-10" value="" style="endArrow=none;html=1;rounded=0;entryX=0;entryY=0;entryDx=110;entryDy=107.5;entryPerimeter=0;" edge="1" parent="1" source="JOD0CruA2qzfyjOclvug-4" target="JOD0CruA2qzfyjOclvug-3">
          <mxGeometry width="50" height="50" relative="1" as="geometry">
            <mxPoint x="340" y="440" as="sourcePoint" />
            <mxPoint x="390" y="390" as="targetPoint" />
          </mxGeometry>
        </mxCell>
        <mxCell id="JOD0CruA2qzfyjOclvug-11" value="" style="endArrow=none;html=1;rounded=0;entryX=0;entryY=0;entryDx=65;entryDy=195;entryPerimeter=0;exitX=0;exitY=0;exitDx=45;exitDy=0;exitPerimeter=0;" edge="1" parent="1" source="JOD0CruA2qzfyjOclvug-3" target="JOD0CruA2qzfyjOclvug-5">
          <mxGeometry width="50" height="50" relative="1" as="geometry">
            <mxPoint x="340" y="440" as="sourcePoint" />
            <mxPoint x="390" y="390" as="targetPoint" />
          </mxGeometry>
        </mxCell>
        <mxCell id="JOD0CruA2qzfyjOclvug-12" value="*" style="text;html=1;align=center;verticalAlign=middle;resizable=0;points=[];autosize=1;strokeColor=none;fillColor=none;fontStyle=1" vertex="1" parent="1">
          <mxGeometry x="710" y="330" width="30" height="30" as="geometry" />
        </mxCell>
        <mxCell id="JOD0CruA2qzfyjOclvug-13" value="1" style="text;html=1;align=center;verticalAlign=middle;resizable=0;points=[];autosize=1;strokeColor=none;fillColor=none;" vertex="1" parent="1">
          <mxGeometry x="425" y="398" width="30" height="30" as="geometry" />
        </mxCell>
        <mxCell id="JOD0CruA2qzfyjOclvug-14" value="2" style="text;html=1;align=center;verticalAlign=middle;resizable=0;points=[];autosize=1;strokeColor=none;fillColor=none;" vertex="1" parent="1">
          <mxGeometry x="425" y="558" width="30" height="30" as="geometry" />
        </mxCell>
      </root>
    </mxGraphModel>
  </diagram>
</mxfile>
